<mxfile host="app.diagrams.net" modified="2020-08-19T05:21:13.188Z" agent="5.0 (Macintosh; Intel Mac OS X 10_15_6) AppleWebKit/537.36 (KHTML, like Gecko) Chrome/84.0.4147.125 Safari/537.36" etag="ZiNEMlpVPmOeK75jNm-1" version="13.6.3" type="github">
  <diagram id="x_OUpMpug5fiHjEuXIow" name="Page-1">
    <mxGraphModel dx="1426" dy="777" grid="1" gridSize="10" guides="1" tooltips="1" connect="1" arrows="1" fold="1" page="1" pageScale="1" pageWidth="1654" pageHeight="2336" math="0" shadow="0">
      <root>
        <mxCell id="0" />
        <mxCell id="1" parent="0" />
        <mxCell id="z9mqpkYLte38POMG3H36-3" value="" style="shape=cube;whiteSpace=wrap;html=1;boundedLbl=1;backgroundOutline=1;darkOpacity=0.05;darkOpacity2=0.1;direction=south;" parent="1" vertex="1">
          <mxGeometry x="960" y="230" width="110" height="110" as="geometry" />
        </mxCell>
        <mxCell id="z9mqpkYLte38POMG3H36-4" value="" style="shape=cube;whiteSpace=wrap;html=1;boundedLbl=1;backgroundOutline=1;darkOpacity=0.05;darkOpacity2=0.1;direction=south;" parent="1" vertex="1">
          <mxGeometry x="900" y="300" width="110" height="110" as="geometry" />
        </mxCell>
        <mxCell id="z9mqpkYLte38POMG3H36-5" value="" style="shape=cube;whiteSpace=wrap;html=1;boundedLbl=1;backgroundOutline=1;darkOpacity=0.05;darkOpacity2=0.1;direction=south;" parent="1" vertex="1">
          <mxGeometry x="840" y="360" width="110" height="110" as="geometry" />
        </mxCell>
        <mxCell id="JJlnIzfoGeA5jF3VVmOF-1" value="" style="shape=cube;whiteSpace=wrap;html=1;boundedLbl=1;backgroundOutline=1;darkOpacity=0.05;darkOpacity2=0.1;" vertex="1" parent="1">
          <mxGeometry x="660" y="360" width="120" height="80" as="geometry" />
        </mxCell>
      </root>
    </mxGraphModel>
  </diagram>
</mxfile>
